<mxfile host="app.diagrams.net" modified="2021-01-20T07:05:22.150Z" agent="5.0 (Windows NT 10.0; Win64; x64) AppleWebKit/537.36 (KHTML, like Gecko) Chrome/87.0.4280.141 Safari/537.36" etag="HjUVyyiYTNn-T9vULUTw" version="14.1.8" type="github">
  <diagram id="D_AzadN5BTebATWcCicK" name="Page-1">
    <mxGraphModel dx="1422" dy="804" grid="0" gridSize="10" guides="1" tooltips="1" connect="1" arrows="1" fold="1" page="0" pageScale="1" pageWidth="1200" pageHeight="1600" math="0" shadow="0">
      <root>
        <mxCell id="0" />
        <mxCell id="1" parent="0" />
        <mxCell id="-Eqy3_3sXXsDwRcK6DCj-3" value="" style="edgeStyle=orthogonalEdgeStyle;rounded=0;orthogonalLoop=1;jettySize=auto;html=1;" edge="1" parent="1" source="-Eqy3_3sXXsDwRcK6DCj-1" target="-Eqy3_3sXXsDwRcK6DCj-2">
          <mxGeometry relative="1" as="geometry" />
        </mxCell>
        <mxCell id="-Eqy3_3sXXsDwRcK6DCj-1" value="数据采集" style="rounded=0;whiteSpace=wrap;html=1;fillColor=#dae8fc;strokeColor=#6c8ebf;" vertex="1" parent="1">
          <mxGeometry x="40" y="440" width="120" height="60" as="geometry" />
        </mxCell>
        <mxCell id="-Eqy3_3sXXsDwRcK6DCj-5" value="" style="edgeStyle=orthogonalEdgeStyle;rounded=0;orthogonalLoop=1;jettySize=auto;html=1;" edge="1" parent="1" source="-Eqy3_3sXXsDwRcK6DCj-2" target="-Eqy3_3sXXsDwRcK6DCj-4">
          <mxGeometry relative="1" as="geometry" />
        </mxCell>
        <mxCell id="-Eqy3_3sXXsDwRcK6DCj-2" value="自动标注" style="whiteSpace=wrap;html=1;rounded=0;fillColor=#fff2cc;strokeColor=#d6b656;" vertex="1" parent="1">
          <mxGeometry x="240" y="440" width="120" height="60" as="geometry" />
        </mxCell>
        <mxCell id="-Eqy3_3sXXsDwRcK6DCj-7" value="" style="edgeStyle=orthogonalEdgeStyle;rounded=0;orthogonalLoop=1;jettySize=auto;html=1;" edge="1" parent="1" source="-Eqy3_3sXXsDwRcK6DCj-4" target="-Eqy3_3sXXsDwRcK6DCj-6">
          <mxGeometry relative="1" as="geometry" />
        </mxCell>
        <mxCell id="-Eqy3_3sXXsDwRcK6DCj-4" value="cleanLap清洗数据" style="whiteSpace=wrap;html=1;rounded=0;fillColor=#dae8fc;strokeColor=#6c8ebf;" vertex="1" parent="1">
          <mxGeometry x="440" y="440" width="120" height="60" as="geometry" />
        </mxCell>
        <mxCell id="-Eqy3_3sXXsDwRcK6DCj-29" value="" style="edgeStyle=orthogonalEdgeStyle;rounded=0;orthogonalLoop=1;jettySize=auto;html=1;" edge="1" parent="1" source="-Eqy3_3sXXsDwRcK6DCj-6" target="-Eqy3_3sXXsDwRcK6DCj-28">
          <mxGeometry relative="1" as="geometry" />
        </mxCell>
        <mxCell id="-Eqy3_3sXXsDwRcK6DCj-53" value="" style="edgeStyle=orthogonalEdgeStyle;rounded=0;orthogonalLoop=1;jettySize=auto;html=1;" edge="1" parent="1" source="-Eqy3_3sXXsDwRcK6DCj-6" target="-Eqy3_3sXXsDwRcK6DCj-52">
          <mxGeometry relative="1" as="geometry" />
        </mxCell>
        <mxCell id="-Eqy3_3sXXsDwRcK6DCj-6" value="检测模型训练、评测" style="whiteSpace=wrap;html=1;rounded=0;fillColor=#fff2cc;strokeColor=#d6b656;" vertex="1" parent="1">
          <mxGeometry x="640" y="440" width="120" height="60" as="geometry" />
        </mxCell>
        <mxCell id="-Eqy3_3sXXsDwRcK6DCj-24" value="" style="edgeStyle=orthogonalEdgeStyle;rounded=0;orthogonalLoop=1;jettySize=auto;html=1;" edge="1" parent="1" source="-Eqy3_3sXXsDwRcK6DCj-21" target="-Eqy3_3sXXsDwRcK6DCj-23">
          <mxGeometry relative="1" as="geometry" />
        </mxCell>
        <mxCell id="-Eqy3_3sXXsDwRcK6DCj-26" value="" style="edgeStyle=orthogonalEdgeStyle;rounded=0;orthogonalLoop=1;jettySize=auto;html=1;" edge="1" parent="1" source="-Eqy3_3sXXsDwRcK6DCj-21" target="-Eqy3_3sXXsDwRcK6DCj-25">
          <mxGeometry relative="1" as="geometry" />
        </mxCell>
        <mxCell id="-Eqy3_3sXXsDwRcK6DCj-21" value="现场评估" style="whiteSpace=wrap;html=1;rounded=0;fillColor=#d5e8d4;strokeColor=#82b366;" vertex="1" parent="1">
          <mxGeometry x="640" y="670" width="120" height="60" as="geometry" />
        </mxCell>
        <mxCell id="-Eqy3_3sXXsDwRcK6DCj-27" style="edgeStyle=orthogonalEdgeStyle;rounded=0;orthogonalLoop=1;jettySize=auto;html=1;entryX=0.5;entryY=1;entryDx=0;entryDy=0;" edge="1" parent="1" source="-Eqy3_3sXXsDwRcK6DCj-23" target="-Eqy3_3sXXsDwRcK6DCj-1">
          <mxGeometry relative="1" as="geometry" />
        </mxCell>
        <mxCell id="-Eqy3_3sXXsDwRcK6DCj-50" value="根据漏报数据定制采集" style="edgeLabel;html=1;align=center;verticalAlign=middle;resizable=0;points=[];" vertex="1" connectable="0" parent="-Eqy3_3sXXsDwRcK6DCj-27">
          <mxGeometry x="-0.1889" y="1" relative="1" as="geometry">
            <mxPoint as="offset" />
          </mxGeometry>
        </mxCell>
        <mxCell id="-Eqy3_3sXXsDwRcK6DCj-23" value="漏报" style="whiteSpace=wrap;html=1;rounded=0;fillColor=#fff2cc;strokeColor=#d6b656;" vertex="1" parent="1">
          <mxGeometry x="440" y="670" width="120" height="60" as="geometry" />
        </mxCell>
        <mxCell id="-Eqy3_3sXXsDwRcK6DCj-43" value="" style="edgeStyle=orthogonalEdgeStyle;rounded=0;orthogonalLoop=1;jettySize=auto;html=1;" edge="1" parent="1" source="-Eqy3_3sXXsDwRcK6DCj-25" target="-Eqy3_3sXXsDwRcK6DCj-42">
          <mxGeometry relative="1" as="geometry" />
        </mxCell>
        <mxCell id="-Eqy3_3sXXsDwRcK6DCj-25" value="误报" style="whiteSpace=wrap;html=1;rounded=0;fillColor=#fff2cc;strokeColor=#d6b656;" vertex="1" parent="1">
          <mxGeometry x="840" y="670" width="120" height="60" as="geometry" />
        </mxCell>
        <mxCell id="-Eqy3_3sXXsDwRcK6DCj-30" value="" style="edgeStyle=orthogonalEdgeStyle;rounded=0;orthogonalLoop=1;jettySize=auto;html=1;" edge="1" parent="1" source="-Eqy3_3sXXsDwRcK6DCj-28" target="-Eqy3_3sXXsDwRcK6DCj-21">
          <mxGeometry relative="1" as="geometry" />
        </mxCell>
        <mxCell id="-Eqy3_3sXXsDwRcK6DCj-28" value="检测模型" style="whiteSpace=wrap;html=1;rounded=0;fillColor=#dae8fc;strokeColor=#6c8ebf;" vertex="1" parent="1">
          <mxGeometry x="640" y="550" width="120" height="60" as="geometry" />
        </mxCell>
        <mxCell id="-Eqy3_3sXXsDwRcK6DCj-33" value="" style="edgeStyle=orthogonalEdgeStyle;rounded=0;orthogonalLoop=1;jettySize=auto;html=1;" edge="1" parent="1" source="-Eqy3_3sXXsDwRcK6DCj-31" target="-Eqy3_3sXXsDwRcK6DCj-28">
          <mxGeometry relative="1" as="geometry" />
        </mxCell>
        <mxCell id="-Eqy3_3sXXsDwRcK6DCj-31" value="Few-shot detector" style="whiteSpace=wrap;html=1;rounded=0;fillColor=#fff2cc;strokeColor=#d6b656;" vertex="1" parent="1">
          <mxGeometry x="840" y="550" width="120" height="60" as="geometry" />
        </mxCell>
        <mxCell id="-Eqy3_3sXXsDwRcK6DCj-38" style="edgeStyle=orthogonalEdgeStyle;rounded=0;orthogonalLoop=1;jettySize=auto;html=1;exitX=0;exitY=0.5;exitDx=0;exitDy=0;entryX=1;entryY=0.5;entryDx=0;entryDy=0;" edge="1" parent="1" target="-Eqy3_3sXXsDwRcK6DCj-6">
          <mxGeometry relative="1" as="geometry">
            <mxPoint x="980" y="470" as="sourcePoint" />
          </mxGeometry>
        </mxCell>
        <mxCell id="-Eqy3_3sXXsDwRcK6DCj-45" value="" style="edgeStyle=orthogonalEdgeStyle;rounded=0;orthogonalLoop=1;jettySize=auto;html=1;" edge="1" parent="1" source="-Eqy3_3sXXsDwRcK6DCj-42" target="-Eqy3_3sXXsDwRcK6DCj-44">
          <mxGeometry relative="1" as="geometry" />
        </mxCell>
        <mxCell id="-Eqy3_3sXXsDwRcK6DCj-42" value="误报采集" style="whiteSpace=wrap;html=1;rounded=0;fillColor=#d5e8d4;strokeColor=#82b366;" vertex="1" parent="1">
          <mxGeometry x="1040" y="670" width="120" height="60" as="geometry" />
        </mxCell>
        <mxCell id="-Eqy3_3sXXsDwRcK6DCj-47" value="否" style="edgeStyle=orthogonalEdgeStyle;rounded=0;orthogonalLoop=1;jettySize=auto;html=1;" edge="1" parent="1" source="-Eqy3_3sXXsDwRcK6DCj-44" target="-Eqy3_3sXXsDwRcK6DCj-31">
          <mxGeometry relative="1" as="geometry" />
        </mxCell>
        <mxCell id="-Eqy3_3sXXsDwRcK6DCj-48" style="edgeStyle=orthogonalEdgeStyle;rounded=0;orthogonalLoop=1;jettySize=auto;html=1;exitX=0.5;exitY=0;exitDx=0;exitDy=0;entryX=1;entryY=0.5;entryDx=0;entryDy=0;" edge="1" parent="1" source="-Eqy3_3sXXsDwRcK6DCj-44" target="-Eqy3_3sXXsDwRcK6DCj-6">
          <mxGeometry relative="1" as="geometry" />
        </mxCell>
        <mxCell id="-Eqy3_3sXXsDwRcK6DCj-49" value="是" style="edgeLabel;html=1;align=center;verticalAlign=middle;resizable=0;points=[];" vertex="1" connectable="0" parent="-Eqy3_3sXXsDwRcK6DCj-48">
          <mxGeometry x="0.1591" y="1" relative="1" as="geometry">
            <mxPoint as="offset" />
          </mxGeometry>
        </mxCell>
        <mxCell id="-Eqy3_3sXXsDwRcK6DCj-44" value="是否累计一定量" style="rhombus;whiteSpace=wrap;html=1;rounded=0;strokeColor=#9673a6;fillColor=#e1d5e7;" vertex="1" parent="1">
          <mxGeometry x="1040" y="550" width="120" height="60" as="geometry" />
        </mxCell>
        <mxCell id="-Eqy3_3sXXsDwRcK6DCj-52" value="扩增测试集" style="whiteSpace=wrap;html=1;rounded=0;strokeColor=#36393d;fillColor=#cce5ff;" vertex="1" parent="1">
          <mxGeometry x="640" y="300" width="120" height="60" as="geometry" />
        </mxCell>
      </root>
    </mxGraphModel>
  </diagram>
</mxfile>
